[2026-03-04T04:58:16.096Z] Pipeline started.
[2026-03-04T04:58:16.868Z] Downloading YouTube: https://youtube.com/shorts/sbqu-Bw61Rs?si=Nn4xez_KJv-rjCSm
[2026-03-04T04:58:37.214Z] ElevenLabs TTS seg 0 [21m00Tcm4TlvDq8ikWAM]: "Həyat tərzini dəyişmək?"
[2026-03-04T04:58:38.841Z] Seg 0 done (28465 bytes) ✅
[2026-03-04T04:58:38.942Z] Stretching seg 0: 1.75s→1.20s (rate=1.40)
[2026-03-04T04:58:39.291Z] ElevenLabs TTS seg 1 [2EiwWnXFnvU5JabPnv8n]: "Sən çox bahalı geyim alırmış kimi görünmürsən."
[2026-03-04T04:58:40.668Z] Seg 1 done (47691 bytes) ✅
[2026-03-04T04:58:40.767Z] Stretching seg 1: 2.95s→2.80s (rate=1.05)
[2026-03-04T04:58:41.254Z] ElevenLabs TTS seg 2 [21m00Tcm4TlvDq8ikWAM]: "Yox, mən çox bahalı geyim almıram."
[2026-03-04T04:58:42.419Z] Seg 2 done (39750 bytes) ✅
[2026-03-04T04:58:42.617Z] Stretching seg 2: 2.46s→2.20s (rate=1.12)
[2026-03-04T04:58:43.189Z] ElevenLabs TTS seg 3 [2EiwWnXFnvU5JabPnv8n]: "Alırsan? Əslində..."
[2026-03-04T04:58:44.449Z] Seg 3 done (30973 bytes) ✅
[2026-03-04T04:58:44.574Z] Stretching seg 3: 1.91s→2.80s (rate=0.80)
[2026-03-04T04:58:44.938Z] ElevenLabs TTS seg 4 [21m00Tcm4TlvDq8ikWAM]: "Yox, mənim kiçik bir otaqlı mənzilim var, yerə yas"
[2026-03-04T04:58:46.360Z] Seg 4 done (61902 bytes) ✅
[2026-03-04T04:58:46.508Z] Stretching seg 4: 3.84s→4.70s (rate=0.82)
[2026-03-04T04:58:47.019Z] ElevenLabs TTS seg 5 [21m00Tcm4TlvDq8ikWAM]: "Orada yaşayıram."
[2026-03-04T04:58:48.027Z] Seg 5 done (20942 bytes) ✅
[2026-03-04T04:58:48.159Z] Stretching seg 5: 1.28s→1.60s (rate=0.80)
[2026-03-04T04:58:48.551Z] Running FFmpeg: C:\Users\fullm\Downloads\dubverse-saas\backend\node_modules\ffmpeg-static\ffmpeg.exe -i C:\Users\fullm\Downloads\dubverse-saas\tmp\uploads\5406ad10-4ec6-4246-bf32-ee986c92f943\audio.mp3 -i C:\Users\fullm\Downloads\dubverse-saas\tmp\uploads\5406ad10-4ec6-4246-bf32-ee986c92f943\segments\seg_0.mp3 -i C:\Users\fullm\Downloads\dubverse-saas\tmp\uploads\5406ad10-4ec6-4246-bf32-ee986c92f943\segments\seg_1.mp3 -i C:\Users\fullm\Downloads\dubverse-saas\tmp\uploads\5406ad10-4ec6-4246-bf32-ee986c92f943\segments\seg_2.mp3 -i C:\Users\fullm\Downloads\dubverse-saas\tmp\uploads\5406ad10-4ec6-4246-bf32-ee986c92f943\segments\seg_3.mp3 -i C:\Users\fullm\Downloads\dubverse-saas\tmp\uploads\5406ad10-4ec6-4246-bf32-ee986c92f943\segments\seg_4.mp3 -i C:\Users\fullm\Downloads\dubverse-saas\tmp\uploads\5406ad10-4ec6-4246-bf32-ee986c92f943\segments\seg_5.mp3 -filter_complex [1:a]aformat=sample_rates=44100:channel_layouts=stereo,adelay=0|0[s0];[2:a]aformat=sample_rates=44100:channel_layouts=stereo,adelay=1200|1200[s1];[3:a]aformat=sample_rates=44100:channel_layouts=stereo,adelay=4000|4000[s2];[4:a]aformat=sample_rates=44100:channel_layouts=stereo,adelay=6200|6200[s3];[5:a]aformat=sample_rates=44100:channel_layouts=stereo,adelay=9000|9000[s4];[6:a]aformat=sample_rates=44100:channel_layouts=stereo,adelay=13700|13700[s5];[0:a]aformat=sample_rates=44100:channel_layouts=stereo,volume=0[bg];[bg][s0][s1][s2][s3][s4][s5]amix=inputs=7:duration=first:dropout_transition=2,volume=7[mixed];[mixed]loudnorm=I=-23:TP=-1.5:LRA=11[out] -map [out] -acodec libmp3lame -ar 44100 -b:a 192k -y C:\Users\fullm\Downloads\dubverse-saas\tmp\uploads\5406ad10-4ec6-4246-bf32-ee986c92f943\dubbed_audio.mp3
[2026-03-04T04:58:48.786Z] FFmpeg Err: Input #0, mp3, from 'C:\Users\fullm\Downloads\dubverse-saas\tmp\uploads\5406ad10-4ec6-4246-bf32-ee986c92f943\audio.mp3':
  Metadata:
    major_brand     : mp42
    minor_version   : 0
    compatible_brands: isommp42
    encoder         : Lavf60.16.100
  Duration: 00:00:15.33, start: 0.025057, bitrate: 128 kb/s
  Stream #0:0: Audio: mp3, 44100 Hz, stereo, fltp, 128 kb/s
    Metadata:
      encoder         : Lavc60.31

[2026-03-04T04:58:48.790Z] FFmpeg Err: Input #1, mp3, from 'C:\Users\fullm\Downloads\dubverse-saas\tmp\uploads\5406ad10-4ec6-4246-bf32-ee986c92f943\segments\seg_0.mp3':
  Metadata:
    encoder         : Lavf60.16.100
  Duration: 00:00:01.28, start: 0.025057, bitrate: 65 kb/s
  Stream #1:0: Audio: mp3, 44100 Hz, mono, fltp, 64 kb/s
Input #2, mp3, from 'C:\Users\fullm\Downloads\dubverse-saas\tmp\uploads\5406ad10-4ec6-4246-bf32-ee986c92f943\segments\seg_1.mp3':
  Metadata:
    encoder         : Lavf60.16.100
  Duration: 00:00:02.82, start: 0.025057, bitrate: 64 kb/s
  Stream #2:0: Audio: mp3, 44100 Hz, mono, fltp, 64 kb/s
Input #3, mp3, from 'C:\Users\fullm\Downloads\dubverse-saas\tmp\uploads\5406ad10-4ec6-4246-bf32-ee986c92f943\segments\seg_2.mp3':
  Metadata:
    encoder         : Lavf60.16.100
  Duration: 00:00:02.22, start: 0.025057, bitrate: 64 kb/s
  Stream #3:0: Audio: mp3, 44100 Hz, mono, fltp, 64 kb/s

[2026-03-04T04:58:48.794Z] FFmpeg Err: Input #4, mp3, from 'C:\Users\fullm\Downloads\dubverse-saas\tmp\uploads\5406ad10-4ec6-4246-bf32-ee986c92f943\segments\seg_3.mp3':
  Metadata:
    encoder         : Lavf60.16.100
  Duration: 00:00:02.32, start: 0.025057, bitrate: 64 kb/s
  Stream #4:0: Audio: mp3, 44100 Hz, mono, fltp, 64 kb/s
Input #5, mp3, from 'C:\Users\fullm\Downloads\dubverse-saas\tmp\uploads\5406ad10-4ec6-4246-bf32-ee986c92f943\segments\seg_4.mp3':
  Metadata:
    encoder         : Lavf60.16.100
  Duration: 00:00:04.68, start: 0.025057, bitrate: 64 kb/s
  Stream #5:0: Audio: mp3, 44100 Hz, mono, fltp, 64 kb/s
Input #6, mp3, from 'C:\Users\fullm\Downloads\dubverse-saas\tmp\uploads\5406ad10-4ec6-4246-bf32-ee986c92f943\segments\seg_5.mp3':
  Metadata:
    encoder         : Lavf60.16.100
  Duration: 00:00:01.59, start: 0.025057, bitrate: 65 kb/s
  Stream #6:0: Audio: mp3, 44100 Hz, mono, fltp, 64 kb/s

[2026-03-04T04:58:48.797Z] FFmpeg Err: Stream mapping:
  Stream #0:0 (mp3float) -> aformat:default
  Stream #1:0 (mp3float) -> aformat:default
  Stream #2:0 (mp3float) -> aformat:default
  Stream #3:0 (mp3float) -> aformat:default
  Stream #4:0 (mp3float) -> aformat:default
  Stream #5:0 (mp3float) -> aformat:default
  Stream #6:0 (mp3float) -> aformat:default
  loudnorm:default -> Stream #0:0 (libmp3lame)

[2026-03-04T04:58:48.924Z] FFmpeg Err: Output #0, mp3, to 'C:\Users\fullm\Downloads\dubverse-saas\tmp\uploads\5406ad10-4ec6-4246-bf32-ee986c92f943\dubbed_audio.mp3':
  Metadata:
    major_brand     : mp42
    minor_version   : 0
    compatible_brands: isommp42
    TSSE            : Lavf60.16.100
  Stream #0:0: Audio: mp3, 44100 Hz, stereo, fltp, 192 kb/s
    Metadata:
      encoder         : Lavc60.31.102 libmp3lame

[2026-03-04T04:58:48.928Z] FFmpeg Err: size=       0kB time=-00:00:00.02 bitrate=  -0.0kbits/s speed=N/A    
[2026-03-04T04:58:49.385Z] FFmpeg Err: size=     121kB time=00:00:05.09 bitrate= 194.1kbits/s speed=8.64x    
[2026-03-04T04:58:49.885Z] FFmpeg Err: size=     254kB time=00:00:10.78 bitrate= 193.0kbits/s speed= 9.9x    
[2026-03-04T04:58:50.164Z] FFmpeg Err: [out#0/mp3 @ 000001a6748b1b40] video:0kB audio:359kB subtitle:0kB other streams:0kB global headers:0kB muxing overhead: 0.207601%
size=     360kB time=00:00:15.38 bitrate= 191.8kbits/s speed=11.2x    

[2026-03-04T04:58:52.229Z] Running FFmpeg: C:\Users\fullm\Downloads\dubverse-saas\backend\node_modules\ffmpeg-static\ffmpeg.exe -i C:\Users\fullm\Downloads\dubverse-saas\tmp\uploads\5406ad10-4ec6-4246-bf32-ee986c92f943\video.mp4 -i C:\Users\fullm\Downloads\dubverse-saas\tmp\uploads\5406ad10-4ec6-4246-bf32-ee986c92f943\dubbed_audio.mp3 -map 0:v:0 -map 1:a:0 -c:v copy -c:a aac -b:a 192k -shortest -y C:\Users\fullm\Downloads\dubverse-saas\tmp\uploads\5406ad10-4ec6-4246-bf32-ee986c92f943\final_dubbed.mp4
[2026-03-04T04:58:52.316Z] FFmpeg Err: Input #0, mov,mp4,m4a,3gp,3g2,mj2, from 'C:\Users\fullm\Downloads\dubverse-saas\tmp\uploads\5406ad10-4ec6-4246-bf32-ee986c92f943\video.mp4':
  Metadata:
    major_brand     : mp42
    minor_version   : 0
    compatible_brands: isommp42
    creation_time   : 2022-10-02T15:04:51.000000Z
  Duration: 00:00:15.30, start: 0.000000, bitrate: 410 kb/s
  Stream #0:0[0x1](und): Video: h264 (Main) (avc1 / 0x31637661), yuv420p(tv, bt709, progressive), 360x640 [SAR 1:1 DAR 9:16], 278 kb/s, 30 fps, 30 tbr, 15360 tbn (default)
    Metadata:
      creation_time   : 2022-10-02T15:04:51.000000Z
      handler_name    : ISO Media file produced by Google Inc. Created on: 10/02/2022.
      vendor_id       : [0][0][0][0]

[2026-03-04T04:58:52.319Z] FFmpeg Err:   Stream #0:1[0x2](eng): Audio: aac (LC) (mp4a / 0x6134706D), 44100 Hz, stereo, fltp, 127 kb/s (default)
    Metadata:
      creation_time   : 2022-10-02T15:04:51.000000Z
      handler_name    : ISO Media file produced by Google Inc. Created on: 10/02/2022.
      vendor_id       : [0][0][0][0]
Input #1, mp3, from 'C:\Users\fullm\Downloads\dubverse-saas\tmp\uploads\5406ad10-4ec6-4246-bf32-ee986c92f943\dubbed_audio.mp3':
  Metadata:
    major_brand     : mp42
    minor_version   : 0
    compatible_brands: isommp42
    encoder         : Lavf60.16.100
  Duration: 00:00:15.33, start: 0.025057, bitrate: 192 kb/s
  Stream #1:0: Audio: mp3, 44100 Hz, stereo, fltp, 192 kb/s
    Metadata:
      encoder         : Lavc60.31

[2026-03-04T04:58:52.322Z] FFmpeg Err: Stream mapping:
  Stream #0:0 -> #0:0 (copy)
  Stream #1:0 -> #0:1 (mp3 (mp3float) -> aac (native))

[2026-03-04T04:58:52.326Z] FFmpeg Err: Output #0, mp4, to 'C:\Users\fullm\Downloads\dubverse-saas\tmp\uploads\5406ad10-4ec6-4246-bf32-ee986c92f943\final_dubbed.mp4':
  Metadata:
    major_brand     : mp42
    minor_version   : 0
    compatible_brands: isommp42
    encoder         : Lavf60.16.100

[2026-03-04T04:58:52.328Z] FFmpeg Err:   Stream #0:0(und): Video: h264 (Main) (avc1 / 0x31637661), yuv420p(tv, bt709, progressive), 360x640 [SAR 1:1 DAR 9:16], q=2-31, 278 kb/s, 30 fps, 30 tbr, 15360 tbn (default)
    Metadata:
      creation_time   : 2022-10-02T15:04:51.000000Z
      handler_name    : ISO Media file produced by Google Inc. Created on: 10/02/2022.
      vendor_id       : [0][0][0][0]
  Stream #0:1: Audio: aac (LC) (mp4a / 0x6134706D), 44100 Hz, stereo, fltp, 192 kb/s
    Metadata:
      encoder         : Lavc60.31.102 aac
size=       0kB time=N/A bitrate=N/A speed=N/A    
[2026-03-04T04:58:52.821Z] FFmpeg Err: size=     512kB time=00:00:10.00 bitrate= 419.5kbits/s speed=  20x    
[2026-03-04T04:58:53.190Z] FFmpeg Err: [out#0/mp4 @ 000001688a4fbe00] video:520kB audio:350kB subtitle:0kB other streams:0kB global headers:0kB muxing overhead: 1.787997%
size=     886kB time=00:00:15.27 bitrate= 475.2kbits/s speed=17.6x    

[2026-03-04T04:58:53.192Z] FFmpeg Err: [aac @ 000001688a36e940] Qavg: 7012.367

[2026-03-04T04:58:54.963Z] ✅ Pipeline finished successfully!
